<?xml version="1.0" encoding="utf-8"?>
<!-- Generator: Adobe Illustrator 21.0.0, SVG Export Plug-In . SVG Version: 6.00 Build 0)  -->
<!DOCTYPE svg PUBLIC "-//W3C//DTD SVG 1.1//EN" "http://www.w3.org/Graphics/SVG/1.1/DTD/svg11.dtd">
<svg version="1.1" id="Layer_1" xmlns="http://www.w3.org/2000/svg" xmlns:xlink="http://www.w3.org/1999/xlink" x="0px" y="0px"
	 viewBox="0 0 300 300" style="enable-background:new 0 0 300 300;" xml:space="preserve">
<style type="text/css">
	.st0{fill:#FFFFFF;}
</style>
<g>
	<g>
		<g id="Layer_3_8_">
			<path class="st0" d="M271.7,187l-29.8,8l-20.1-11.6l32.9-8.8c3.5-0.9,5.5-4.5,4.6-8c-0.9-3.5-4.5-5.5-8-4.6l-45.5,12.2l-17.2-10
				c-0.6-0.3-1.2-0.6-1.8-0.7l18.3-8.1c2.4-1,3.9-3.4,3.9-6c0-2.6-1.5-4.9-3.9-6l-18.4-8.1c0.6-0.1,1.3-0.4,1.9-0.7l17.2-10
				l45.5,12.2c0.6,0.2,1.1,0.2,1.7,0.2c2.9,0,5.5-1.9,6.3-4.8c0.9-3.5-1.1-7.1-4.6-8l-32.9-8.8l20.1-11.6l29.8,8
				c0.6,0.2,1.1,0.2,1.7,0.2c2.9,0,5.5-1.9,6.3-4.8c0.9-3.5-1.1-7.1-4.6-8l-17.2-4.6l16.5-9.5c3.1-1.8,4.2-5.8,2.4-8.9
				s-5.8-4.2-8.9-2.4l-16.5,9.5l4.6-17.2c0.9-3.5-1.1-7.1-4.6-8c-3.5-0.9-7.1,1.1-8,4.6l-8,29.8l-20.1,11.6l8.8-32.9
				c0.9-3.5-1.1-7.1-4.6-8c-3.5-0.9-7.1,1.1-8,4.6l-12.2,45.5l-17.2,10c-0.6,0.3-1.1,0.7-1.5,1.2l2.2-19.9c0.3-2.6-1-5.1-3.2-6.4
				c-2.2-1.3-5-1.1-7.1,0.4l-16.2,11.8c0.2-0.6,0.3-1.3,0.3-2V88.6l33.3-33.3c2.5-2.5,2.5-6.7,0-9.2c-2.5-2.5-6.7-2.5-9.2,0
				l-24.1,24.1V47l21.8-21.8c2.5-2.5,2.5-6.7,0-9.2c-2.5-2.5-6.7-2.5-9.2,0l-12.6,12.6v-19c0-3.6-2.9-6.5-6.5-6.5
				c-3.6,0-6.5,2.9-6.5,6.5v19L130.9,16c-2.5-2.5-6.7-2.5-9.2,0c-2.5,2.5-2.5,6.7,0,9.2L143.5,47v23.2l-24.1-24.1
				c-2.5-2.5-6.7-2.5-9.2,0c-2.5,2.5-2.5,6.7,0,9.2l33.3,33.3v19.9c0,0.7,0.1,1.3,0.3,1.9l-16.1-11.8c-2.1-1.5-4.9-1.7-7.1-0.4
				c-2.2,1.3-3.5,3.8-3.2,6.4l2.2,20c-0.4-0.5-1-0.9-1.6-1.3l-17.2-10L88.5,67.8c-0.9-3.5-4.5-5.5-8-4.6c-3.5,0.9-5.5,4.5-4.6,8
				l8.8,32.9L64.6,92.6l-8-29.8c-0.9-3.5-4.5-5.5-8-4.6c-3.5,0.9-5.5,4.5-4.6,8l4.6,17.2l-16.5-9.5C29,72,25,73.1,23.2,76.2
				c-1.8,3.1-0.7,7.1,2.4,8.9l16.5,9.5l-17.2,4.6c-3.5,0.9-5.5,4.5-4.6,8c0.8,2.9,3.4,4.8,6.3,4.8c0.6,0,1.1-0.1,1.7-0.2l29.8-8
				l20.1,11.6l-32.9,8.8c-3.5,0.9-5.5,4.5-4.6,8c0.8,2.9,3.4,4.8,6.3,4.8c0.6,0,1.1-0.1,1.7-0.2l45.5-12.2l17.2,10
				c0.6,0.3,1.2,0.6,1.8,0.7l-18.3,8c-2.4,1-3.9,3.4-3.9,6c0,2.6,1.5,4.9,3.9,6l18.4,8.1c-0.6,0.1-1.3,0.4-1.9,0.7l-17.2,10
				l-45.5-12.2c-3.5-0.9-7.1,1.1-8,4.6c-0.9,3.5,1.1,7.1,4.6,8l32.9,8.8l-20.1,11.6l-29.8-8c-3.5-0.9-7.1,1.1-8,4.6
				c-0.9,3.5,1.1,7.1,4.6,8l17.2,4.6l-16.5,9.5c-3.1,1.8-4.2,5.8-2.4,8.9c1.2,2.1,3.4,3.3,5.7,3.3c1.1,0,2.2-0.3,3.3-0.9l16.5-9.5
				L44,232.6c-0.9,3.5,1.1,7.1,4.6,8c0.6,0.2,1.1,0.2,1.7,0.2c2.9,0,5.5-1.9,6.3-4.8l8-29.8l20.1-11.6l-8.8,32.9
				c-0.9,3.5,1.1,7.1,4.6,8c0.6,0.2,1.1,0.2,1.7,0.2c2.9,0,5.5-1.9,6.3-4.8l12.2-45.5l17.2-10c0.6-0.3,1.1-0.7,1.5-1.2l-2.2,19.9
				c-0.3,2.6,1,5.1,3.2,6.4c2.2,1.3,5,1.1,7.1-0.4l16.2-11.9c-0.2,0.6-0.3,1.3-0.3,2v19.9l-33.3,33.3c-2.5,2.5-2.5,6.7,0,9.2
				c1.3,1.3,2.9,1.9,4.6,1.9c1.7,0,3.3-0.6,4.6-1.9l24.1-24.1v23.2l-21.8,21.8c-2.5,2.5-2.5,6.7,0,9.2c1.3,1.3,2.9,1.9,4.6,1.9
				c1.7,0,3.3-0.6,4.6-1.9l12.6-12.6v19c0,3.6,2.9,6.5,6.5,6.5c3.6,0,6.5-2.9,6.5-6.5v-19l12.6,12.6c2.5,2.5,6.7,2.5,9.2,0
				c2.5-2.5,2.5-6.7,0-9.2l-21.8-21.8v-23.2l24.1,24.1c2.5,2.5,6.7,2.5,9.2,0c2.5-2.5,2.5-6.7,0-9.2l-33.3-33.3v-19.9
				c0-0.7-0.1-1.3-0.3-1.9l16.1,11.8c1.1,0.8,2.5,1.3,3.9,1.3c1.1,0,2.2-0.3,3.3-0.9c2.2-1.3,3.5-3.8,3.2-6.4l-2.2-19.9
				c0.4,0.5,1,0.9,1.5,1.2l17.2,10l12.2,45.5c0.8,2.9,3.4,4.8,6.3,4.8c0.6,0,1.1-0.1,1.7-0.2c3.5-0.9,5.5-4.5,4.6-8l-8.8-32.9
				l20.1,11.6l8,29.8c0.8,2.9,3.4,4.8,6.3,4.8c0.6,0,1.1-0.1,1.7-0.2c3.5-0.9,5.5-4.5,4.6-8l-4.6-17.2l16.5,9.5
				c1,0.6,2.1,0.9,3.3,0.9c2.3,0,4.4-1.2,5.7-3.3c1.8-3.1,0.7-7.1-2.4-8.9l-16.5-9.5l17.2-4.6c3.5-0.9,5.5-4.5,4.6-8
				C278.8,188.1,275.2,186,271.7,187z M170.1,156.6c-2.6,1.1-4.2,3.8-3.9,6.7l1.9,17.6l-14.3-10.5c-1.1-0.8-2.5-1.3-3.9-1.3
				c-1.4,0-2.7,0.4-3.9,1.3l-14.3,10.5l1.9-17.6c0.3-2.8-1.2-5.5-3.8-6.7l-16.2-7.2l16.2-7.1c2.6-1.1,4.2-3.8,3.9-6.7l-1.9-17.6
				l14.3,10.5c2.3,1.7,5.4,1.7,7.7,0l14.3-10.5l-1.9,17.6c-0.3,2.8,1.2,5.5,3.8,6.7l16.2,7.2L170.1,156.6z"/>
		</g>
	</g>
</g>
</svg>
