<?xml version="1.0" encoding="utf-8"?>
<!-- Generator: Adobe Illustrator 21.0.0, SVG Export Plug-In . SVG Version: 6.00 Build 0)  -->
<!DOCTYPE svg PUBLIC "-//W3C//DTD SVG 1.1//EN" "http://www.w3.org/Graphics/SVG/1.1/DTD/svg11.dtd">
<svg version="1.1" id="Layer_1" xmlns="http://www.w3.org/2000/svg" xmlns:xlink="http://www.w3.org/1999/xlink" x="0px" y="0px"
	 viewBox="0 0 433.2 337.1" style="enable-background:new 0 0 433.2 337.1;" xml:space="preserve">
<style type="text/css">
	.st0{fill:url(#SVGID_1_);}
	.st1{fill:url(#SVGID_2_);}
	.st2{fill:url(#SVGID_3_);}
	.st3{opacity:0.76;}
	.st4{fill:#F7941D;}
	.st5{fill:url(#SVGID_4_);}
	.st6{fill:#FFFFFF;}
	.st7{opacity:0.35;fill:#FFFFFF;}
	.st8{fill:#8B5E3C;}
	.st9{fill:#009444;}
	.st10{fill:url(#SVGID_5_);}
	.st11{fill:url(#SVGID_6_);}
	.st12{fill:url(#SVGID_7_);}
	.st13{fill:url(#SVGID_8_);}
	.st14{fill:url(#SVGID_9_);}
	.st15{fill:url(#SVGID_10_);}
	.st16{fill:url(#SVGID_11_);}
	.st17{fill:url(#SVGID_12_);}
	.st18{fill:url(#SVGID_13_);}
	.st19{fill:url(#SVGID_14_);}
	.st20{fill:url(#SVGID_15_);}
	.st21{fill:url(#SVGID_16_);}
	.st22{fill:url(#SVGID_17_);}
	.st23{fill:url(#SVGID_18_);}
	.st24{fill:url(#SVGID_19_);}
	.st25{fill:url(#SVGID_20_);}
</style>
<linearGradient id="SVGID_1_" gradientUnits="userSpaceOnUse" x1="76.2979" y1="380.2227" x2="267.542" y2="-70.3203">
	<stop  offset="0" style="stop-color:#FFFFFF"/>
	<stop  offset="1" style="stop-color:#99DFF9"/>
</linearGradient>
<polyline class="st0" points="-89.4,0 433.2,0 433.2,309.9 -89.4,309.9 "/>
<linearGradient id="SVGID_2_" gradientUnits="userSpaceOnUse" x1="225.6094" y1="254.3873" x2="393.0943" y2="254.3873">
	<stop  offset="0" style="stop-color:#FFFFFF;stop-opacity:0.8"/>
	<stop  offset="0.9999" style="stop-color:#FFFFFF;stop-opacity:0"/>
</linearGradient>
<rect x="225.6" y="211.1" class="st1" width="167.5" height="86.5"/>
<linearGradient id="SVGID_3_" gradientUnits="userSpaceOnUse" x1="128.2921" y1="78.0077" x2="335.024" y2="78.0077">
	<stop  offset="0" style="stop-color:#FFFFFF;stop-opacity:0.8"/>
	<stop  offset="0.9987" style="stop-color:#FFFFFF;stop-opacity:0"/>
</linearGradient>
<rect x="128.3" y="34.8" class="st2" width="206.7" height="86.5"/>
<g class="st3">
	<polygon class="st4" points="125.3,45.1 55.8,45.1 55.8,51.1 125.3,51.1 125.3,121.3 131.3,121.3 131.3,34.8 125.3,34.8 	"/>
	<polygon class="st4" points="222.6,211.1 222.6,283.8 172.7,283.8 172.7,289.8 222.6,289.8 222.6,297.6 228.6,297.6 228.6,211.1 	
		"/>
</g>
<radialGradient id="SVGID_4_" cx="194.0186" cy="308.1032" r="255.2323" fx="440.0663" fy="375.9564" gradientTransform="matrix(1 0 0 0.6563 0 105.8926)" gradientUnits="userSpaceOnUse">
	<stop  offset="0" style="stop-color:#39B54A"/>
	<stop  offset="5.826022e-03" style="stop-color:#3BB64E;stop-opacity:0.9954"/>
	<stop  offset="8.246595e-02" style="stop-color:#54C17B;stop-opacity:0.9342"/>
	<stop  offset="0.1622" style="stop-color:#69CAA2;stop-opacity:0.8706"/>
	<stop  offset="0.2441" style="stop-color:#7AD2C1;stop-opacity:0.8052"/>
	<stop  offset="0.3288" style="stop-color:#88D8DA;stop-opacity:0.7376"/>
	<stop  offset="0.4176" style="stop-color:#91DCEB;stop-opacity:0.6669"/>
	<stop  offset="0.5129" style="stop-color:#97DEF6;stop-opacity:0.5908"/>
	<stop  offset="0.6267" style="stop-color:#99DFF9;stop-opacity:0.5"/>
	<stop  offset="1" style="stop-color:#FFFFFF"/>
</radialGradient>
<polyline class="st5" points="-89,337.1 433.2,337.1 433.2,303.9 220.8,303.9 54.6,39.4 -20.9,159.6 -42.7,125 -89,198.7 "/>
<polyline class="st6" points="-89,280.2 -47.6,238.2 -6,257.3 38.6,213.2 84.9,257.3 112.1,238.2 164.4,284.4 201.6,325.9 
	240,313.9 433.2,333 433.2,303.9 220.8,303.9 54.6,39.4 -20.9,159.6 -42.7,125 -89,198.7 "/>
<path class="st7" d="M372,83.8c0-4.3-3.5-7.8-7.8-7.8c-0.1,0-0.1,0-0.2,0c-1-6.4-6.6-11.2-13.2-11.2c-6.2,0-11.4,4.2-12.9,9.9
	c-1.3-0.8-2.9-1.2-4.6-1.2c-5,0-9.1,4.1-9.1,9.1s4.1,9.1,9.1,9.1h30.9v0C368.5,91.6,372,88.1,372,83.8z"/>
<path class="st7" d="M41.6,28.9c0-4.3-3.5-7.8-7.8-7.8c-0.1,0-0.1,0-0.2,0c-1-6.4-6.6-11.2-13.2-11.2c-6.2,0-11.4,4.2-12.9,9.9
	c-1.3-0.8-2.9-1.2-4.6-1.2c-5,0-9.1,4.1-9.1,9.1s4.1,9.1,9.1,9.1h30.9v0C38.1,36.7,41.6,33.2,41.6,28.9z"/>
<path class="st7" d="M261.4,156.5c0-5.8-4.7-10.5-10.5-10.5c-0.1,0-0.1,0-0.2,0c-1.4-8.6-8.8-15.1-17.8-15.1
	c-8.3,0-15.3,5.6-17.4,13.3c-1.8-1.1-3.9-1.7-6.1-1.7c-6.8,0-12.2,5.5-12.2,12.2c0,6.8,5.5,12.2,12.2,12.2H251v0
	C256.7,167,261.4,162.3,261.4,156.5z"/>
<path class="st7" d="M219.7,166c0-8.5,6.9-15.4,15.4-15.4c0.1,0,0.2,0,0.3,0c2.1-12.6,12.9-22.2,26.1-22.2
	c12.2,0,22.4,8.3,25.5,19.5c2.7-1.5,5.7-2.5,9-2.5c9.9,0,18,8,18,18s-8,18-18,18h-61v0C226.6,181.4,219.7,174.5,219.7,166z"/>
<polyline class="st6" points="-184.6,-69.6 0,-69.6 0,454.8 "/>
<g>
	<rect x="105.3" y="268.7" class="st8" width="3.1" height="9.2"/>
	<polygon class="st9" points="116,274.1 97.7,274.1 106.9,242.7 	"/>
	<linearGradient id="SVGID_5_" gradientUnits="userSpaceOnUse" x1="103.2114" y1="249.6298" x2="111.6623" y2="249.6298">
		<stop  offset="0" style="stop-color:#FFFFFF"/>
		<stop  offset="1" style="stop-color:#D6F2FD"/>
	</linearGradient>
	<path class="st10" d="M110,256.9l-6.3-3.9c-0.4-0.3-0.6-0.7-0.5-1.2l2.6-8.9c0.3-1,1.7-1,2,0l3.7,12.8
		C111.9,256.7,110.9,257.5,110,256.9z"/>
</g>
<g>
	<rect x="14.4" y="234.5" class="st8" width="1.1" height="3.2"/>
	<polygon class="st9" points="18.1,236.4 11.7,236.4 14.9,225.4 	"/>
	<linearGradient id="SVGID_6_" gradientUnits="userSpaceOnUse" x1="13.636" y1="227.802" x2="16.5849" y2="227.802">
		<stop  offset="0" style="stop-color:#FFFFFF"/>
		<stop  offset="1" style="stop-color:#D6F2FD"/>
	</linearGradient>
	<path class="st11" d="M16,230.4l-2.2-1.4c-0.1-0.1-0.2-0.3-0.2-0.4l0.9-3.1c0.1-0.4,0.6-0.4,0.7,0l1.3,4.5
		C16.7,230.3,16.3,230.5,16,230.4z"/>
</g>
<g>
	<rect x="20.3" y="230.4" class="st8" width="1.1" height="3.2"/>
	<polygon class="st9" points="24.1,232.3 17.7,232.3 20.9,221.3 	"/>
	<linearGradient id="SVGID_7_" gradientUnits="userSpaceOnUse" x1="19.5897" y1="223.7564" x2="22.5387" y2="223.7564">
		<stop  offset="0" style="stop-color:#FFFFFF"/>
		<stop  offset="1" style="stop-color:#D6F2FD"/>
	</linearGradient>
	<path class="st12" d="M22,226.3l-2.2-1.4c-0.1-0.1-0.2-0.3-0.2-0.4l0.9-3.1c0.1-0.4,0.6-0.4,0.7,0l1.3,4.5
		C22.6,226.2,22.3,226.5,22,226.3z"/>
</g>
<g>
	<rect x="48" y="222.7" class="st8" width="0.9" height="2.5"/>
	<polygon class="st9" points="50.9,224.2 45.9,224.2 48.4,215.5 	"/>
	<linearGradient id="SVGID_8_" gradientUnits="userSpaceOnUse" x1="47.3874" y1="217.4457" x2="49.7134" y2="217.4457">
		<stop  offset="0" style="stop-color:#FFFFFF"/>
		<stop  offset="1" style="stop-color:#D6F2FD"/>
	</linearGradient>
	<path class="st13" d="M49.3,219.5l-1.7-1.1c-0.1-0.1-0.2-0.2-0.1-0.3l0.7-2.5c0.1-0.3,0.5-0.3,0.6,0l1,3.5
		C49.8,219.4,49.5,219.6,49.3,219.5z"/>
</g>
<g>
	<rect x="52.6" y="232.5" class="st8" width="1.3" height="3.8"/>
	<polygon class="st9" points="57,234.8 49.5,234.8 53.2,221.8 	"/>
	<linearGradient id="SVGID_9_" gradientUnits="userSpaceOnUse" x1="51.7281" y1="224.6447" x2="55.2204" y2="224.6447">
		<stop  offset="0" style="stop-color:#FFFFFF"/>
		<stop  offset="1" style="stop-color:#D6F2FD"/>
	</linearGradient>
	<path class="st14" d="M54.5,227.7l-2.6-1.6c-0.2-0.1-0.2-0.3-0.2-0.5l1.1-3.7c0.1-0.4,0.7-0.4,0.8,0l1.5,5.3
		C55.3,227.6,54.9,227.9,54.5,227.7z"/>
</g>
<g>
	<rect x="59.4" y="233.8" class="st8" width="1.5" height="4.4"/>
	<polygon class="st9" points="64.5,236.3 55.8,236.3 60.2,221.4 	"/>
	<linearGradient id="SVGID_10_" gradientUnits="userSpaceOnUse" x1="58.4416" y1="224.7108" x2="62.4444" y2="224.7108">
		<stop  offset="0" style="stop-color:#FFFFFF"/>
		<stop  offset="1" style="stop-color:#D6F2FD"/>
	</linearGradient>
	<path class="st15" d="M61.7,228.2l-3-1.8c-0.2-0.1-0.3-0.4-0.2-0.6l1.2-4.2c0.1-0.5,0.8-0.5,1,0l1.8,6.1
		C62.6,228,62.1,228.4,61.7,228.2z"/>
</g>
<g>
	<rect x="131" y="273.8" class="st8" width="4" height="10.9"/>
	<polygon class="st9" points="144.6,280.2 121.3,280.2 132.9,243 	"/>
	<linearGradient id="SVGID_11_" gradientUnits="userSpaceOnUse" x1="128.2922" y1="251.2132" x2="139.0424" y2="251.2132">
		<stop  offset="0" style="stop-color:#FFFFFF"/>
		<stop  offset="1" style="stop-color:#D6F2FD"/>
	</linearGradient>
	<path class="st16" d="M137,259.9l-8-4.6c-0.5-0.3-0.8-0.9-0.6-1.4l3.3-10.5c0.4-1.2,2.2-1.2,2.6,0l4.7,15.1
		C139.3,259.5,138,260.5,137,259.9z"/>
</g>
<g>
	<rect x="142" y="300" class="st8" width="5.1" height="13.9"/>
	<polygon class="st9" points="159.4,308.1 129.7,308.1 144.6,260.7 	"/>
	<linearGradient id="SVGID_12_" gradientUnits="userSpaceOnUse" x1="138.647" y1="271.1765" x2="152.3504" y2="271.1765">
		<stop  offset="0" style="stop-color:#FFFFFF"/>
		<stop  offset="1" style="stop-color:#D6F2FD"/>
	</linearGradient>
	<path class="st17" d="M149.7,282.2l-10.2-5.9c-0.7-0.4-1-1.1-0.8-1.8l4.2-13.4c0.5-1.5,2.8-1.5,3.3,0l6,19.3
		C152.7,281.8,151.1,283,149.7,282.2z"/>
</g>
<g>
	<rect x="172.7" y="312" class="st8" width="5.5" height="15"/>
	<polygon class="st9" points="191.4,320.8 159.4,320.8 175.4,269.6 	"/>
	<linearGradient id="SVGID_13_" gradientUnits="userSpaceOnUse" x1="169.0201" y1="280.9112" x2="183.8267" y2="280.9112">
		<stop  offset="0" style="stop-color:#FFFFFF"/>
		<stop  offset="1" style="stop-color:#D6F2FD"/>
	</linearGradient>
	<path class="st18" d="M181,292.8l-11.1-6.4c-0.7-0.4-1-1.2-0.8-2l4.5-14.5c0.5-1.7,3.1-1.7,3.6,0l6.5,20.9
		C184.2,292.4,182.4,293.7,181,292.8z"/>
</g>
<g>
	<rect x="30.3" y="304.4" class="st8" width="3.1" height="9.2"/>
	<polygon class="st9" points="41,309.8 22.7,309.8 31.9,278.3 	"/>
	<linearGradient id="SVGID_14_" gradientUnits="userSpaceOnUse" x1="28.2114" y1="285.2896" x2="36.6623" y2="285.2896">
		<stop  offset="0" style="stop-color:#FFFFFF"/>
		<stop  offset="1" style="stop-color:#D6F2FD"/>
	</linearGradient>
	<path class="st19" d="M35,292.6l-6.3-3.9c-0.4-0.3-0.6-0.7-0.5-1.2l2.6-8.9c0.3-1,1.7-1,2,0l3.7,12.8
		C36.9,292.3,35.9,293.1,35,292.6z"/>
</g>
<g>
	<rect x="14.4" y="269.6" class="st8" width="1.8" height="5.4"/>
	<polygon class="st9" points="20.7,272.8 9.9,272.8 15.3,254.3 	"/>
	<linearGradient id="SVGID_15_" gradientUnits="userSpaceOnUse" x1="13.1429" y1="258.3822" x2="18.103" y2="258.3822">
		<stop  offset="0" style="stop-color:#FFFFFF"/>
		<stop  offset="1" style="stop-color:#D6F2FD"/>
	</linearGradient>
	<path class="st20" d="M17.1,262.7l-3.7-2.3c-0.2-0.1-0.4-0.4-0.3-0.7l1.5-5.2c0.2-0.6,1-0.6,1.2,0l2.2,7.5
		C18.2,262.5,17.6,263,17.1,262.7z"/>
</g>
<g>
	<rect x="21.9" y="254" class="st8" width="1.6" height="4.7"/>
	<polygon class="st9" points="27.4,256.8 18.1,256.8 22.7,240.8 	"/>
	<linearGradient id="SVGID_16_" gradientUnits="userSpaceOnUse" x1="20.8657" y1="244.3336" x2="25.1588" y2="244.3336">
		<stop  offset="0" style="stop-color:#FFFFFF"/>
		<stop  offset="1" style="stop-color:#D6F2FD"/>
	</linearGradient>
	<path class="st21" d="M24.3,248l-3.2-2c-0.2-0.1-0.3-0.4-0.2-0.6l1.3-4.5c0.2-0.5,0.9-0.5,1,0l1.9,6.5
		C25.3,247.9,24.8,248.3,24.3,248z"/>
</g>
<g>
	<rect x="28.4" y="258.7" class="st8" width="1.2" height="3.6"/>
	<polygon class="st9" points="32.5,260.8 25.4,260.8 29,248.6 	"/>
	<linearGradient id="SVGID_17_" gradientUnits="userSpaceOnUse" x1="27.5468" y1="251.2833" x2="30.8186" y2="251.2833">
		<stop  offset="0" style="stop-color:#FFFFFF"/>
		<stop  offset="1" style="stop-color:#D6F2FD"/>
	</linearGradient>
	<path class="st22" d="M30.2,254.1l-2.4-1.5c-0.2-0.1-0.2-0.3-0.2-0.5l1-3.5c0.1-0.4,0.7-0.4,0.8,0l1.4,5
		C30.9,254,30.5,254.3,30.2,254.1z"/>
</g>
<g>
	<rect x="80.4" y="281.8" class="st8" width="1.7" height="5.1"/>
	<polygon class="st9" points="86.4,284.8 76.2,284.8 81.3,267.3 	"/>
	<linearGradient id="SVGID_18_" gradientUnits="userSpaceOnUse" x1="79.281" y1="271.1371" x2="83.978" y2="271.1371">
		<stop  offset="0" style="stop-color:#FFFFFF"/>
		<stop  offset="1" style="stop-color:#D6F2FD"/>
	</linearGradient>
	<path class="st23" d="M83.1,275.2l-3.5-2.2c-0.2-0.1-0.3-0.4-0.3-0.7l1.4-5c0.2-0.6,1-0.6,1.1,0l2.1,7.1
		C84.1,275.1,83.5,275.5,83.1,275.2z"/>
</g>
<g>
	<rect x="372.6" y="325.8" class="st8" width="2.2" height="6.6"/>
	<polygon class="st9" points="380.3,329.7 367.2,329.7 373.7,307 	"/>
	<linearGradient id="SVGID_19_" gradientUnits="userSpaceOnUse" x1="371.1162" y1="312.0105" x2="377.2023" y2="312.0105">
		<stop  offset="0" style="stop-color:#FFFFFF"/>
		<stop  offset="1" style="stop-color:#D6F2FD"/>
	</linearGradient>
	<path class="st24" d="M376,317.3l-4.5-2.8c-0.3-0.2-0.4-0.5-0.3-0.9l1.9-6.4c0.2-0.7,1.3-0.7,1.5,0l2.7,9.2
		C377.4,317.1,376.6,317.6,376,317.3z"/>
</g>
<g>
	<rect x="385.1" y="330.2" class="st8" width="1.2" height="3.5"/>
	<polygon class="st9" points="389.2,332.2 382.2,332.2 385.7,320.2 	"/>
	<linearGradient id="SVGID_20_" gradientUnits="userSpaceOnUse" x1="384.263" y1="322.8456" x2="387.4953" y2="322.8456">
		<stop  offset="0" style="stop-color:#FFFFFF"/>
		<stop  offset="1" style="stop-color:#D6F2FD"/>
	</linearGradient>
	<path class="st25" d="M386.9,325.6l-2.4-1.5c-0.2-0.1-0.2-0.3-0.2-0.5l1-3.4c0.1-0.4,0.7-0.4,0.8,0l1.4,4.9
		C387.6,325.5,387.2,325.8,386.9,325.6z"/>
</g>
</svg>
